<?xml version="1.0" encoding="utf-8"?>
<!-- Generator: Adobe Illustrator 16.0.0, SVG Export Plug-In . SVG Version: 6.00 Build 0)  -->
<!DOCTYPE svg PUBLIC "-//W3C//DTD SVG 1.1//EN" "http://www.w3.org/Graphics/SVG/1.1/DTD/svg11.dtd">
<svg version="1.1" id="Layer_1" xmlns="http://www.w3.org/2000/svg" xmlns:xlink="http://www.w3.org/1999/xlink" x="0px" y="0px"
	 width="1026.522px" height="990.15px" viewBox="0 0 1026.522 990.15" enable-background="new 0 0 1026.522 990.15"
	 xml:space="preserve">
<path d="M358.431,990.15c-78.824,0-146.101-30.321-199.963-90.121C-54.495,663.618,7.813,42.195,10.57,15.86L12.229,0h677.591
	l1.867,15.592c3.162,26.356,75.011,648.217-134.676,884.55C504.03,959.865,437.215,990.15,358.431,990.15z M44.341,35.402
	c-8.335,99.286-43.884,636.359,140.444,840.956c46.862,52.013,105.285,78.391,173.646,78.391
	c68.214,0,126.113-26.274,172.082-78.081c181.502-204.544,137.49-742.662,127.672-841.265H44.341z"/>
<path d="M511.835,435.977H368.776c-52.705,0-95.582-42.881-95.582-95.586c0-52.706,42.877-95.583,95.582-95.583h143.059
	c52.713,0,95.592,42.877,95.592,95.583C607.427,393.095,564.548,435.977,511.835,435.977z M368.776,280.209
	c-33.184,0-60.181,26.997-60.181,60.182c0,33.184,26.997,60.185,60.181,60.185h143.059c33.188,0,60.189-27.001,60.189-60.185
	c0-33.185-27.001-60.182-60.189-60.182H368.776z"/>
<path d="M930.94,443.177H787.873c-52.705,0-95.582-42.878-95.582-95.583c0-52.704,42.877-95.587,95.582-95.587H930.94
	c52.703,0,95.582,42.883,95.582,95.587C1026.522,400.298,983.644,443.177,930.94,443.177z M787.873,287.409
	c-33.18,0-60.181,27-60.181,60.185c0,33.185,27.001,60.181,60.181,60.181H930.94c33.188,0,60.181-26.996,60.181-60.181
	c0-33.185-26.992-60.185-60.181-60.185H787.873z"/>
<polygon points="689.949,727.421 506.709,727.421 506.709,692.02 650.986,692.02 613.519,301.289 648.748,297.91 "/>
<rect x="406.961" y="789.555" width="369.236" height="35.403"/>
<rect x="299.685" y="165.042" width="250.801" height="35.401"/>
<rect x="722.887" y="152.164" width="261.795" height="35.402"/>
<circle id="path862" cx="445.465" cy="326.345" r="58.374"/>
<circle id="circle864" cx="867.362" cy="326.345" r="58.374"/>
</svg>
